<svg xmlns="http://www.w3.org/2000/svg" width="47.2" height="47.199" viewBox="0 0 47.2 47.199">
  <g id="Group_3232" data-name="Group 3232" transform="translate(3715 17738)">
    <g id="_985_mo_h" data-name="985_mo_h" transform="translate(-3715 -17738)">
      <g id="Group_3231" data-name="Group 3231" transform="translate(20.757)">
        <path id="楕円形_63" data-name="楕円形 63" d="M11.222-1A12.222,12.222,0,1,1-1,11.222,12.236,12.236,0,0,1,11.222-1Zm0,22a9.777,9.777,0,1,0-9.777-9.777A9.788,9.788,0,0,0,11.222,21Z" transform="translate(1 1)" fill="#fff"/>
      </g>
      <path id="パス_3654" data-name="パス 3654" d="M16,45.837H6a1,1,0,0,1-1-1v-9.56a1,1,0,0,1,2,0v8.56h8v-11H6a1,1,0,0,1,0-2H16a1,1,0,0,1,1,1v13A1,1,0,0,1,16,45.837Z" transform="translate(-5 1.362)" fill="#fff"/>
      <path id="パス_3655" data-name="パス 3655" d="M24,44.837h-.034l-11-.37a1,1,0,0,1,.067-2l10.893.366L34.584,40.9c.886-.677,4.507-3.439,6.716-5.042a3.479,3.479,0,0,0-2.44-.315c-1.289.606-4.376,2.174-4.407,2.19a1,1,0,0,1-.453.108H24a1,1,0,0,1-.98-.8l-.5-2.432a1,1,0,0,1,.5-1.079c.029-.016,2.87-1.565,3.919-2.141a1.537,1.537,0,0,0-.175-1.226.3.3,0,0,0-.407-.134c-1.7.477-7.575,2.3-8.825,2.693l-1.6,1.6a1,1,0,1,1-1.414-1.414l1.776-1.776a1,1,0,0,1,.409-.248c.293-.091,7.188-2.242,9.117-2.782a2.358,2.358,0,0,1,2.914,1.519c.491,1.2.338,2.878-.768,3.486-.707.388-2.4,1.312-3.336,1.823l.187.909h8.946c.732-.371,3.117-1.576,4.247-2.108a4.723,4.723,0,0,1,3.2-.044,5.241,5.241,0,0,1,2.587,1.576,1,1,0,0,1-.227,1.439c-1.887,1.287-7.895,5.885-7.955,5.931a1,1,0,0,1-.429.19l-11,2A1,1,0,0,1,24,44.837Z" transform="translate(3.2 1.362)" fill="#fff"/>
      <path id="Path_3681" data-name="Path 3681" d="M819.748,329.89H822v2.253a1.067,1.067,0,1,0,2.135,0V329.89h2.253a1.068,1.068,0,1,0,0-2.135h-2.253V325.5a1.067,1.067,0,1,0-2.135,0v2.253h-2.253a1.068,1.068,0,1,0,0,2.135" transform="translate(-809.929 -322.936)" fill="#fff"/>
      <path id="Path_3682" data-name="Path 3682" d="M801.049,410.157a2.135,2.135,0,1,0,2.135,2.135,2.137,2.137,0,0,0-2.135-2.135" transform="translate(-786.24 -386.635)" fill="#fff"/>
      <path id="Path_3683" data-name="Path 3683" d="M827.726,381.371a2.135,2.135,0,1,0,2.135-2.135,2.137,2.137,0,0,0-2.135,2.135" transform="translate(-825.65 -366.658)" fill="#fff"/>
    </g>
    <g id="ビットコインのマークのアイコン素材_1" data-name="ビットコインのマークのアイコン素材 1" transform="translate(-3687.199 -17732.961)">
      <path id="Path_3680" data-name="Path 3680" d="M69.368,7.018a3.243,3.243,0,0,0-1.238-.86q-.114-.049-.234-.095a3.081,3.081,0,0,0,.732-.71,2.309,2.309,0,0,0,.505-1.387,2.976,2.976,0,0,0-.1-.772,2.364,2.364,0,0,0-.387-.766,2.5,2.5,0,0,0-.756-.671A4.235,4.235,0,0,0,66.67,1.32a6.492,6.492,0,0,0-.724-.116V.079A.079.079,0,0,0,65.868,0h-.942a.08.08,0,0,0-.079.079V1.153H63.6V.079A.079.079,0,0,0,63.521,0h-.941A.079.079,0,0,0,62.5.079V1.153H59.979l-.059.035a.528.528,0,0,0-.244.494.528.528,0,0,0,.244.494l.059.035h.069a3.767,3.767,0,0,1,.395.015,1.855,1.855,0,0,1,.294.059.38.38,0,0,1,.162.078,1.182,1.182,0,0,1,.143.2.877.877,0,0,1,.094.312,4.314,4.314,0,0,1,.03.548v6.628a4.29,4.29,0,0,1-.03.548.876.876,0,0,1-.094.312,1.042,1.042,0,0,1-.146.206.347.347,0,0,1-.158.077,1.737,1.737,0,0,1-.3.059,3.738,3.738,0,0,1-.395.015h-.069l-.059.035a.622.622,0,0,0,0,.99l.058.034H62.5v1.074a.079.079,0,0,0,.079.079h.941a.079.079,0,0,0,.079-.079V12.334h1.248v1.074a.08.08,0,0,0,.079.079h.942a.079.079,0,0,0,.078-.079V12.316a7.656,7.656,0,0,0,1.534-.231,3.737,3.737,0,0,0,1.5-.733,3,3,0,0,0,.795-1.068,3.3,3.3,0,0,0,.249-1.3A2.95,2.95,0,0,0,69.368,7.018ZM67.041,9.573a2.331,2.331,0,0,1-.192.577,1.575,1.575,0,0,1-.37.5,1.852,1.852,0,0,1-.648.352c-.044.014-.088.028-.132.039l-.079.021a3.3,3.3,0,0,1-.7.084l-.077,0v.006h-.028c-.077,0-.147,0-.219-.006h-.009a3.929,3.929,0,0,1-.754-.1.505.505,0,0,1-.106-.37V6.806H64.9a2.152,2.152,0,0,1,1.649.576,2.241,2.241,0,0,1,.542,1.6A3.411,3.411,0,0,1,67.041,9.573ZM64.847,2.336h0v0l.11,0a1.7,1.7,0,0,1,.622.122.97.97,0,0,1,.119.06A1.558,1.558,0,0,1,66.317,4c0,1.1-.529,1.61-1.666,1.61h-.919V2.79a1.011,1.011,0,0,1,.023-.245.247.247,0,0,1,.07-.1.441.441,0,0,1,.215-.077c.086-.014.439-.024.555-.029H64.6c.062,0,.132,0,.2-.006Z" transform="translate(-59.676)" fill="#fff"/>
    </g>
  </g>
</svg>
